<svg width="49" height="60" viewBox="0 0 49 60" fill="none" xmlns="http://www.w3.org/2000/svg">
<path d="M40.9123 33.6322C39.2619 25.3259 47.146 20.4544 47.146 20.4544C47.146 20.4544 44.0742 16.0102 38.9118 14.867C33.7518 13.7212 31.1693 15.1527 28.5919 16.2264C26.0119 17.3027 24.7245 17.3027 24.7245 17.3027C21.0014 17.3027 18.2798 13.3607 11.1862 15.1554C6.29925 16.3886 1.15471 22.0301 0.225211 28.7633C-0.70429 35.499 1.30153 44.0937 5.16886 50.7547C9.03619 57.421 12.9757 59.9262 15.7719 59.9983C18.5681 60.0678 21.3593 57.9951 24.7245 57.4904C28.0924 56.9909 30.1651 58.7109 33.4686 59.6404C36.7591 60.5674 37.9127 59.7074 41.7028 56.4837C45.5031 53.26 48.9431 44.0139 48.9431 44.0139C48.9431 44.0139 42.5628 41.9436 40.9123 33.6322Z" fill="white"/>
<path d="M33.605 9.49327C37.2612 5.76763 36.0228 0 36.0228 0C36.0228 0 30.8886 0.901211 27.4486 4.48015C24.0112 8.06172 24.5803 13.7186 24.5803 13.7186C24.5803 13.7186 29.9487 13.2165 33.605 9.49327Z" fill="white"/>
</svg>
